<svg version="1.1" id="Layer_1" xmlns="http://www.w3.org/2000/svg" xmlns:xlink="http://www.w3.org/1999/xlink" x="0px" y="0px"
	 width="100%" viewBox="0 0 1200 628" enable-background="new 0 0 1200 628" xml:space="preserve">
<path fill="#ffffff" opacity="1.000000" stroke="none" 
	d="
M729.000000,629.000000 
	C486.000000,629.000000 243.500031,629.000000 1.000033,629.000000 
	C1.000022,419.666687 1.000022,210.333389 1.000011,1.000061 
	C400.999969,1.000041 800.999939,1.000041 1201.000000,1.000020 
	C1201.000000,210.333267 1201.000000,419.666534 1201.000000,628.999878 
	C1043.833374,629.000000 886.666687,629.000000 729.000000,629.000000 
M906.001465,461.998291 
	C906.001465,461.998291 906.007568,462.055267 906.570618,461.911896 
	C906.804382,461.609009 907.038208,461.306122 907.623230,460.858582 
	C907.843750,460.700836 907.967407,460.487091 908.616455,460.051605 
	C909.094360,459.712280 909.572205,459.372955 910.001465,459.001129 
	C910.001465,459.001129 910.022705,459.055603 910.556030,458.942902 
	C910.722473,458.637146 910.888977,458.331390 911.001831,458.002106 
	C911.001831,458.002106 911.026367,458.055267 911.562317,457.948334 
	C911.726562,457.640594 911.890869,457.332855 912.001831,457.001526 
	C912.001831,457.001526 912.025024,457.055084 912.555115,456.938507 
	C912.721558,456.634033 912.888000,456.329559 912.998291,456.006561 
	C912.998291,456.006561 913.032776,456.054596 913.729614,456.033508 
	C914.171326,455.367279 914.613098,454.701080 915.003418,453.997772 
	C915.003418,453.997772 915.042603,454.046936 915.663452,453.830566 
	C916.127625,452.897400 916.591797,451.964233 917.000000,451.000061 
	C917.000000,451.000061 917.044800,451.045654 917.672852,450.850739 
	C918.434326,449.563568 919.195801,448.276367 920.296448,446.308228 
	C921.491211,440.526733 922.685974,434.745239 923.973511,428.035126 
	C923.983032,410.744751 924.009583,393.454346 923.998718,376.163971 
	C923.967590,326.788208 923.921204,277.412476 924.059143,227.181442 
	C923.417664,215.250183 918.537720,205.472092 908.961487,197.485382 
	C908.657715,197.360703 908.353882,197.236023 907.410034,196.942459 
	C906.969849,196.911530 906.529724,196.880600 905.978027,196.146255 
	C897.715637,187.317230 886.626465,185.230225 875.568298,185.173096 
	C810.788513,184.838470 746.005615,184.883026 681.225342,185.162720 
	C673.421021,185.196396 665.238220,186.166916 658.490051,191.076538 
	C646.021484,200.147949 639.077942,212.308594 639.040833,227.907516 
	C638.946655,267.541931 639.038452,307.176819 638.862183,346.810699 
	C638.853271,348.800293 637.020691,350.781769 635.254333,352.973999 
	C627.284180,355.669922 619.244324,358.183319 611.391113,361.185211 
	C609.329529,361.973297 607.846802,364.275574 606.098267,365.882538 
	C607.740295,367.237732 609.230286,368.860199 611.053101,369.897766 
	C616.415771,372.950256 621.910522,375.770691 628.318909,379.198273 
	C621.504150,386.768860 615.913879,393.685791 609.586792,399.846008 
	C599.538818,409.629028 587.976257,417.526367 576.084106,424.181671 
	C576.020630,423.750000 575.957153,423.318329 575.990601,421.972534 
	C575.973083,378.027374 575.955505,334.082214 576.140869,289.200745 
	C575.780212,280.043549 575.644043,270.867615 574.883179,261.743774 
	C574.716797,259.748962 572.698242,257.239807 570.846375,256.244873 
	C569.040161,255.274460 566.355469,255.939224 563.632568,255.227264 
	C559.797058,254.459259 555.961548,253.691254 551.825623,252.257019 
	C550.879150,252.217453 549.932678,252.177887 548.121948,252.041214 
	C541.293579,251.371307 534.476624,250.301102 527.634766,250.107437 
	C508.056274,249.553345 488.468475,249.125275 468.882996,249.062897 
	C423.233704,248.917480 377.582581,248.848282 331.934662,249.137131 
	C321.099030,249.205688 311.108948,253.558945 303.559967,261.226624 
	C295.171265,269.747253 290.974854,280.500366 290.991211,292.803314 
	C291.073883,354.947052 291.001343,417.090973 291.052917,479.234802 
	C291.056030,482.986877 291.766083,486.732788 291.968109,490.491211 
	C292.822235,506.380127 302.519379,516.644592 314.293091,525.526062 
	C315.893066,526.732971 318.072601,527.171631 320.155609,528.625610 
	C321.405609,529.081604 322.655609,529.537598 324.121246,530.623291 
	C324.753510,530.773071 325.385742,530.922852 326.001465,531.000916 
	C326.001465,531.000916 325.929688,531.017212 326.226776,531.733093 
	C334.891876,535.427490 343.989380,533.597595 353.862915,533.966675 
	C415.339294,533.976990 476.815704,534.011292 538.291931,533.914368 
	C540.878357,533.910278 543.462830,532.685852 546.001526,531.998047 
	C546.001526,531.998047 545.994324,532.054138 546.757568,532.036560 
	C548.344788,531.359619 549.932007,530.682678 552.139832,530.042236 
	C553.096375,529.685425 554.052979,529.328552 555.678467,528.796326 
	C559.137817,525.542236 562.597107,522.288208 566.007446,518.998718 
	C566.007446,518.998718 566.025146,519.056519 566.557068,518.944580 
	C566.723389,518.639954 566.889648,518.335327 567.035767,517.993042 
	C567.035767,517.993042 567.076233,518.008118 567.577759,517.958923 
	C567.776001,517.696350 567.974243,517.433777 568.767517,516.783447 
	C572.554871,511.079559 575.333313,505.021576 575.991272,497.482880 
	C575.927429,488.317169 575.863586,479.151428 575.908875,469.062958 
	C575.908875,464.949036 575.908875,460.835083 575.908875,457.330963 
	C580.652954,455.065002 584.899292,453.036804 589.910095,451.042511 
	C595.709900,448.592865 601.509766,446.143219 607.849060,443.219360 
	C614.663513,442.157898 620.274231,438.846832 624.994934,433.995087 
	C624.994934,433.995087 624.982788,434.066406 625.657898,433.989258 
	C626.481873,433.324249 627.305847,432.659241 628.743286,431.758636 
	C630.173279,430.819214 631.603271,429.879791 633.755676,428.898224 
	C634.514282,428.630676 635.272888,428.363159 636.004150,428.182526 
	C636.004150,428.182526 636.075439,428.239319 636.758911,428.025543 
	C637.830994,428.395477 639.724854,428.581573 639.854736,429.162231 
	C642.982300,443.143280 651.082764,453.457214 663.016907,461.074036 
	C663.016907,461.074036 662.940063,461.062256 663.200806,461.635590 
	C663.803589,461.787079 664.406311,461.938538 665.000122,462.001678 
	C665.000122,462.001678 664.911804,462.011108 665.065552,462.535797 
	C665.367615,462.718842 665.669678,462.901886 665.995667,463.014069 
	C665.995667,463.014069 665.934387,463.056885 666.170532,463.652313 
	C666.783752,463.798248 667.397034,463.944214 667.993347,464.019958 
	C667.993347,464.019958 667.923950,464.039795 668.193542,464.704010 
	C670.124023,465.498444 672.054443,466.292877 673.989563,467.018463 
	C673.989563,467.018463 673.926697,467.046844 674.285950,467.742767 
	C678.258606,468.500031 682.229980,469.909882 686.204041,469.917328 
	C753.262085,470.042908 820.320374,470.001312 887.378601,469.937164 
	C888.901550,469.935699 890.423767,469.241302 892.687927,469.016541 
	C894.808716,468.020477 896.929504,467.024414 899.000488,465.999634 
	C899.000488,465.999634 899.001465,466.057037 899.647339,466.036804 
	C900.115112,465.701080 900.582947,465.365387 901.001404,464.999420 
	C901.001404,464.999420 901.002258,465.057220 901.641418,465.031097 
	C902.111389,464.696594 902.581360,464.362122 903.000366,463.999786 
	C903.000366,463.999786 903.002319,464.057770 903.653748,464.055084 
	C904.118286,463.718567 904.582825,463.382050 905.007141,462.997223 
	C905.007141,462.997223 905.030579,463.054901 905.561768,462.937866 
	C905.726257,462.631287 905.890686,462.324707 906.001465,461.998291 
M937.654785,133.843689 
	C937.795471,133.231918 937.936218,132.620132 938.010620,132.006683 
	C938.010620,132.006683 938.047058,132.062103 938.693054,131.812531 
	C939.150452,130.535477 939.607849,129.258423 939.995850,127.995804 
	C939.995850,127.995804 940.009583,128.065277 940.654358,127.818069 
	C941.460022,126.213127 942.265686,124.608185 943.006592,123.003784 
	C943.006592,123.003784 943.028748,123.064560 943.653320,122.735443 
	C944.794067,120.162056 945.934814,117.588669 947.009827,115.006340 
	C947.009827,115.006340 947.043213,115.063698 947.650391,114.845802 
	C947.791931,114.231201 947.933411,113.616592 948.009583,113.005630 
	C948.009583,113.005630 948.040161,113.063416 948.670410,112.839378 
	C949.371460,111.298027 950.072510,109.756676 950.914490,107.590683 
	C950.639404,107.061737 950.364319,106.532799 949.999329,105.284256 
	C948.120972,102.464455 947.052002,104.376007 945.995178,105.993935 
	C945.995178,105.993935 945.992615,105.927872 945.459167,106.059738 
	C945.281738,106.365143 945.104309,106.670547 944.993225,106.993515 
	C944.993225,106.993515 944.952881,106.938103 944.340576,107.147934 
	C944.201843,107.764854 944.063171,108.381775 943.990173,108.994194 
	C943.990173,108.994194 943.961975,108.934731 943.356995,109.158592 
	C943.213257,109.773087 943.069519,110.387581 942.991943,110.995361 
	C942.991943,110.995361 942.969238,110.932838 942.364807,111.161263 
	C942.218994,111.776581 942.073242,112.391899 941.994934,112.997314 
	C941.994934,112.997314 941.977295,112.931450 941.366760,113.154137 
	C941.220886,113.772888 941.075012,114.391640 940.997559,114.999130 
	C940.997559,114.999130 940.982239,114.931564 940.359863,115.145798 
	C939.881592,116.087517 939.403320,117.029228 938.994324,117.994408 
	C938.994324,117.994408 938.945679,117.939835 938.266907,118.149261 
	C936.154968,122.418449 934.043091,126.687630 931.997559,130.999619 
	C931.997559,130.999619 931.941162,130.944397 931.271423,131.176331 
	C929.822266,134.445847 928.373169,137.715363 926.992615,140.993088 
	C926.992615,140.993088 926.944214,140.943756 926.311584,141.131638 
	C926.286987,141.979553 926.262451,142.827469 925.895203,144.328247 
	C924.463196,146.743408 922.806335,149.060745 921.694397,151.615234 
	C921.142578,152.882797 921.592041,154.586227 921.588562,156.092484 
	C923.083496,155.515945 925.245911,155.371704 925.950745,154.283401 
	C928.251770,150.730972 930.021240,146.834274 932.643555,142.813629 
	C933.454224,141.218781 934.264893,139.623932 935.005127,138.004730 
	C935.005127,138.004730 935.056519,138.058655 935.676514,137.868805 
	C935.810425,137.252029 935.944336,136.635254 936.008057,136.007828 
	C936.008057,136.007828 936.057373,136.058884 936.680664,135.871506 
	C936.812866,135.251587 936.945068,134.631683 937.010071,134.006683 
	C937.010071,134.006683 937.049927,134.060959 937.654785,133.843689 
M269.110291,243.681427 
	C269.743866,243.811707 270.377441,243.941971 271.373260,244.642654 
	C275.576141,245.549133 277.984070,252.258163 284.947754,248.160217 
	C281.143829,245.409866 278.043732,243.168381 274.894104,240.406982 
	C274.599030,240.246841 274.303986,240.086716 274.005585,239.993225 
	C274.005585,239.993225 274.071289,239.981674 273.846619,239.326767 
	C270.914795,237.528702 267.983002,235.730652 265.000000,233.999390 
	C265.000000,233.999390 265.053741,233.935349 264.821503,233.273956 
	C262.550995,232.156769 260.280487,231.039581 258.007416,229.988556 
	C258.007416,229.988556 258.067871,229.961594 257.864044,229.362366 
	C257.263245,229.256866 256.662476,229.151382 255.390396,228.913956 
	C253.918259,227.932877 252.446136,226.951797 250.842682,225.308380 
	C249.571304,224.513443 248.299942,223.718491 247.006271,222.990387 
	C247.006271,222.990387 247.065903,222.952835 246.837006,222.263123 
	C244.244751,219.159363 241.013855,218.235657 237.095016,219.352234 
	C236.414108,223.333786 238.537308,225.167374 242.000397,226.001724 
	C242.000397,226.001724 241.943237,226.062317 242.164429,226.745575 
	C244.104523,227.477173 246.044601,228.208771 248.221786,229.559998 
	C249.138718,230.039124 250.055634,230.518265 251.131958,231.659180 
	C252.737320,232.795334 254.342697,233.931488 256.001404,235.003052 
	C256.001404,235.003052 255.940109,235.059204 256.132019,235.699722 
	C257.078857,236.157623 258.025726,236.615524 258.994263,237.008408 
	C258.994263,237.008408 258.935242,237.043304 259.197601,237.682556 
	C261.792786,239.146820 264.387939,240.611084 266.993225,242.010010 
	C266.993225,242.010010 266.934174,242.039749 267.159210,242.638550 
	C267.768646,242.781174 268.378052,242.923798 268.992157,243.003433 
	C268.992157,243.003433 268.940674,243.040070 269.110291,243.681427 
M939.473511,156.091049 
	C939.293884,156.396515 939.114319,156.701981 939.011963,157.013947 
	C939.011963,157.013947 939.020996,156.936935 938.384094,157.010437 
	C937.900452,157.334534 937.416748,157.658646 936.998962,157.997543 
	C936.998962,157.997543 937.005737,157.930420 936.276184,158.023438 
	C934.648132,159.042358 932.255188,159.705566 931.576111,161.165771 
	C930.620972,163.219666 929.881653,166.631256 930.940491,168.090256 
	C932.864807,170.741898 935.209045,168.493744 936.926331,166.661545 
	C937.700012,165.836151 938.356873,164.901306 939.000916,164.002640 
	C939.000916,164.002640 938.996277,164.069611 939.520935,163.881638 
	C939.732910,163.582626 939.944885,163.283600 940.789795,162.755493 
	C945.131042,160.050583 949.568542,157.482559 953.746033,154.544846 
	C954.794983,153.807251 955.009705,151.883316 955.607849,150.504593 
	C954.023071,150.375351 952.191956,149.681931 950.908447,150.242432 
	C948.707153,151.203766 946.847900,152.948563 944.186279,154.209427 
	C943.436157,154.467392 942.685974,154.725342 942.002258,155.001450 
	C942.002258,155.001450 942.017761,154.934341 941.380188,155.009003 
	C940.898254,155.331665 940.416260,155.654343 939.996948,155.994858 
	C939.996948,155.994858 939.997681,155.929718 939.473511,156.091049 
M286.942841,216.415253 
	C286.661407,216.245895 286.379944,216.076538 285.763550,215.264557 
	C284.389526,215.149155 283.015533,215.033737 281.641510,214.918335 
	C281.743805,216.625748 281.846069,218.333176 281.999634,220.760178 
	C283.628998,223.211212 285.258362,225.662231 287.158875,228.734634 
	C288.078766,230.183014 288.998627,231.631378 289.964447,233.702393 
	C290.269379,234.173981 290.574310,234.645554 291.330994,235.816528 
	C293.211121,235.816528 295.091217,235.816528 298.092499,235.816528 
	C296.831757,233.328766 295.964417,231.617294 295.045990,229.288727 
	C294.735504,228.825226 294.425018,228.361725 294.043121,227.205933 
	C293.066895,225.768600 292.090698,224.331268 291.034210,222.252884 
	C290.392700,221.468842 289.751190,220.684784 289.037567,219.256378 
	C288.396057,218.467987 287.754578,217.679581 286.942841,216.415253 
M248.296463,268.756744 
	C255.361679,269.813141 262.417175,270.946686 269.502808,271.841492 
	C270.547119,271.973419 271.734344,270.974060 272.855469,270.498138 
	C272.268677,269.636810 271.681885,268.775513 270.732025,267.239838 
	C263.812805,265.513916 256.904358,263.740601 249.952118,262.160004 
	C249.443665,262.044403 248.617996,263.324127 247.291565,264.255554 
	C247.494446,265.532745 247.697311,266.809967 248.296463,268.756744 
M897.775208,151.756714 
	C897.872437,148.453506 897.927124,145.148376 898.075806,141.847488 
	C898.380188,135.090088 898.889221,128.335800 898.925842,121.578102 
	C898.932373,120.374344 897.064453,119.160439 896.062012,117.951210 
	C895.028625,119.100647 893.260376,120.148201 893.084473,121.416534 
	C892.143433,128.204575 891.418518,135.036713 891.004700,141.876968 
	C890.831055,144.748901 891.361572,147.734955 892.017395,150.565979 
	C892.711670,153.563354 894.648254,153.994720 897.006592,152.002594 
	C897.006592,152.002594 897.062622,152.063812 897.775208,151.756714 
z"/>
<path fill="#F9D9AB" opacity="1.000000" stroke="none" 
	d="
M552.126038,252.923248 
	C555.961548,253.691254 559.797058,254.459259 563.802979,255.909637 
	C564.669678,260.192719 565.700195,263.766693 565.990601,267.399872 
	C566.545166,274.338043 566.624878,281.313171 567.047791,288.264069 
	C567.105774,289.218018 567.999329,290.121155 568.597351,291.505981 
	C568.702271,333.835693 568.708984,375.707184 568.739624,417.578674 
	C568.742798,421.892578 568.888977,426.206360 568.712769,430.709259 
	C551.627014,440.077057 534.040222,447.102783 514.993347,450.205444 
	C510.920746,450.868896 506.994843,452.432495 503.000488,453.966553 
	C504.846619,455.573486 506.587799,457.626984 508.558319,457.877655 
	C518.890686,459.192017 529.286743,460.888824 539.649841,460.820007 
	C549.178101,460.756744 558.692627,458.622223 568.253052,457.395050 
	C568.253052,469.257751 569.402039,481.313934 567.995911,493.064362 
	C565.618469,512.930420 548.473755,526.768433 528.399475,526.769470 
	C463.144104,526.772705 397.888702,526.785828 332.633362,526.732483 
	C328.830353,526.729370 325.030151,526.109802 321.221527,525.968811 
	C320.834106,525.954468 320.397552,527.268494 319.983795,527.966064 
	C318.072601,527.171631 315.893066,526.732971 314.293091,525.526062 
	C302.519379,516.644592 292.822235,506.380127 291.968109,490.491211 
	C291.766083,486.732788 291.056030,482.986877 291.052917,479.234802 
	C291.001343,417.090973 291.073883,354.947052 290.991211,292.803314 
	C290.974854,280.500366 295.171265,269.747253 303.559967,261.226624 
	C311.108948,253.558945 321.099030,249.205688 331.934662,249.137131 
	C377.582581,248.848282 423.233704,248.917480 468.882996,249.062897 
	C488.468475,249.125275 508.056274,249.553345 527.634766,250.107437 
	C534.476624,250.301102 541.293579,251.371307 548.825317,252.278473 
	C550.394470,252.651581 551.260254,252.787415 552.126038,252.923248 
M409.272003,341.522980 
	C401.875732,343.267944 397.853790,348.559692 395.083191,355.112244 
	C387.175110,373.815155 385.543823,392.532318 396.223114,410.720764 
	C402.606964,421.593384 413.453003,422.059998 420.113678,411.394348 
	C424.342896,404.622192 427.407593,396.796692 429.406921,389.034607 
	C432.393250,377.440491 431.881958,365.560760 427.815765,354.116638 
	C424.485077,344.742401 418.804901,340.779572 409.272003,341.522980 
M474.997620,353.662323 
	C471.218842,351.106354 467.712158,347.093353 463.599548,346.325439 
	C456.919281,345.078156 449.831512,345.761566 442.944061,346.141968 
	C441.887970,346.200287 440.173340,348.975067 440.130463,350.531128 
	C439.545074,371.777649 439.189758,393.030670 438.808502,414.282593 
	C438.753967,417.323303 439.112000,420.223328 443.337524,421.678040 
	C446.811584,412.649292 445.270203,403.289673 446.043671,394.166443 
	C450.092621,394.166443 453.594666,394.368530 457.064667,394.121063 
	C462.868530,393.707153 468.633087,392.242401 471.767426,387.001678 
	C477.880066,376.781158 480.440491,365.881958 474.997620,353.662323 
M505.213226,390.325256 
	C507.127045,391.253448 509.040863,392.181671 511.499512,393.374146 
	C504.774323,403.885651 498.973877,414.790771 485.042358,417.346588 
	C484.853638,420.829956 486.331329,422.900726 489.887726,422.484467 
	C492.459900,422.183411 495.128082,421.452881 497.424103,420.272980 
	C504.771271,416.497467 509.779266,410.247284 513.864868,403.305603 
	C524.286194,385.598785 525.460205,365.834229 526.116699,346.015594 
	C526.148926,345.043121 524.634399,344.019409 523.840088,343.019562 
	C522.832031,344.025360 521.079834,344.936218 520.937500,346.052399 
	C520.057312,352.953369 519.851624,359.947845 518.810242,366.818573 
	C517.833801,373.260895 516.100464,379.588531 514.678650,386.064575 
	C502.134186,382.636414 495.300934,375.697693 494.566986,363.627411 
	C494.367401,360.345795 494.935883,356.990204 494.492126,353.759216 
	C494.124451,351.082153 496.884125,346.428314 491.895752,346.130219 
	C487.130707,345.845490 488.955994,350.664581 488.718414,353.104889 
	C487.248474,368.203583 489.916656,381.725128 505.213226,390.325256 
M375.526215,414.120209 
	C376.507904,413.494263 377.523407,412.915070 378.464905,412.233582 
	C381.332977,410.157715 385.042206,407.273468 382.631866,403.986511 
	C380.259766,400.751678 377.114777,404.498840 374.568176,406.108643 
	C374.428802,406.196747 374.321564,406.334412 374.185760,406.429596 
	C364.830505,412.987366 354.447144,412.119629 346.772705,403.588257 
	C338.313843,394.184814 336.565308,383.047119 339.429199,370.938293 
	C342.950806,356.048798 360.084320,342.047302 375.050903,347.570618 
	C375.899780,347.883942 378.467316,346.290375 378.456116,345.613770 
	C378.432495,344.187286 377.560883,341.937653 376.455017,341.501343 
	C368.925812,338.530731 361.417603,339.400269 354.184753,342.712067 
	C336.886353,350.632751 327.683472,373.163696 333.586029,392.940552 
	C339.827484,413.852844 356.831024,422.722473 375.526215,414.120209 
M557.509583,256.469696 
	C557.509583,256.469696 557.528015,256.512177 557.509583,256.469696 
z"/>
<path fill="#DE95AD" opacity="1.000000" stroke="none" 
	d="
M636.037231,352.767029 
	C637.020691,350.781769 638.853271,348.800293 638.862183,346.810699 
	C639.038452,307.176819 638.946655,267.541931 639.040833,227.907516 
	C639.077942,212.308594 646.021484,200.147949 658.490051,191.076538 
	C665.238220,186.166916 673.421021,185.196396 681.225342,185.162720 
	C746.005615,184.883026 810.788513,184.838470 875.568298,185.173096 
	C886.626465,185.230225 897.715637,187.317230 906.046021,196.863678 
	C907.458374,199.400650 908.802795,201.220230 910.075317,203.394501 
	C915.166443,211.470963 916.958252,219.958847 916.935486,229.236511 
	C916.778015,293.553650 916.863342,357.871368 916.846313,422.188904 
	C916.840393,444.616882 899.306335,462.191437 876.975891,462.194000 
	C811.658630,462.201569 746.341248,462.239838 681.024231,462.107239 
	C676.280396,462.097626 671.550354,460.710449 666.789246,460.188110 
	C665.553467,460.052551 664.224548,460.765930 662.938477,461.089355 
	C651.082764,453.457214 642.982300,443.143280 639.854736,429.162231 
	C639.724854,428.581573 637.830994,428.395477 636.063477,427.883118 
	C644.332153,420.464172 653.296326,413.187683 662.545410,406.070251 
	C667.857178,411.438904 672.884033,416.648529 677.826782,422.115021 
	C679.410217,423.743408 681.077698,425.114929 682.745178,426.486481 
	C683.801086,424.586945 685.474304,422.787628 685.801697,420.769867 
	C686.971924,413.558807 687.725098,406.278198 688.563843,399.015564 
	C690.451172,382.673706 692.417664,366.339417 694.098389,349.976013 
	C694.800232,343.143402 693.293457,340.990906 687.000183,338.235840 
	C683.943115,338.765564 681.299255,339.247864 678.580261,339.339478 
	C678.328735,335.045929 678.152405,331.143036 678.009399,327.977234 
	C684.499451,326.291351 690.258240,325.298920 695.630981,323.279327 
	C703.280762,320.403778 707.018738,314.272156 706.805725,306.151337 
	C706.568054,297.087830 702.708679,289.496552 696.176514,283.287872 
	C690.954407,278.324432 684.511536,277.081451 677.671631,278.079712 
	C676.307861,278.278748 674.198853,280.361359 674.163086,281.624359 
	C673.599426,301.531860 673.319092,321.447327 672.699646,341.575348 
	C662.857727,344.946136 653.309448,348.164490 643.708374,351.216522 
	C641.236816,352.002167 638.598755,352.264374 636.037231,352.767029 
M853.615356,353.992981 
	C861.190796,351.532410 869.808899,356.531067 877.086792,350.889130 
	C875.284851,349.605316 873.490417,348.851746 871.655090,348.733643 
	C865.520508,348.338959 859.359863,348.310822 853.236816,347.806580 
	C851.920593,347.698181 849.630005,346.180450 849.633179,345.318695 
	C849.668884,335.591888 850.064636,325.866425 850.365601,316.082520 
	C852.218689,315.975067 853.372620,315.836121 854.524109,315.853546 
	C860.343323,315.941559 866.164185,316.196869 871.978760,316.087982 
	C873.291260,316.063385 874.580933,314.820160 875.881165,314.137909 
	C874.947815,312.949188 874.245056,311.202881 873.028198,310.699799 
	C871.107056,309.905518 868.846497,309.730530 866.719727,309.675385 
	C861.615295,309.542938 856.505127,309.632538 850.684631,309.632538 
	C851.159058,302.423218 851.831421,295.855927 851.928711,289.280182 
	C851.982056,285.675354 853.310791,284.675476 856.672363,284.865906 
	C863.473999,285.251221 870.290405,285.503632 877.100891,285.508148 
	C878.650635,285.509186 880.201172,284.278412 881.751343,283.614563 
	C880.611877,282.421875 879.560181,281.122070 878.293518,280.084778 
	C877.717957,279.613403 876.723450,279.537872 875.907593,279.493591 
	C867.110046,279.015961 858.312622,278.482147 849.507751,278.262604 
	C848.455627,278.236328 846.529968,279.901459 846.430298,280.921448 
	C846.049866,284.815338 846.384460,288.771912 846.211792,292.694489 
	C845.452087,309.955872 844.603333,327.213287 843.797485,344.472656 
	C843.356812,353.909210 843.566284,354.126068 853.615356,353.992981 
M738.007324,323.743073 
	C739.320251,331.275513 740.458923,338.844940 742.046570,346.319031 
	C742.557312,348.723450 744.251770,350.876404 745.404724,353.144409 
	C746.100891,352.947906 746.796997,352.751404 747.493164,352.554901 
	C747.646973,350.353394 748.304993,348.047974 747.876099,345.966522 
	C743.820190,326.282654 739.691772,306.611298 735.238281,287.014954 
	C734.725586,284.758881 732.104675,282.981903 730.461243,280.982788 
	C728.298035,282.764160 725.128479,284.106964 724.130859,286.396301 
	C716.151306,304.706482 710.697510,323.822632 707.140930,343.471802 
	C706.607971,346.416473 707.239319,348.982025 711.551270,350.380035 
	C712.469543,345.726288 713.347900,341.425262 714.163757,337.112427 
	C716.751770,323.432556 716.742126,323.426056 730.419128,321.622925 
	C732.065735,321.405823 733.745544,321.043121 735.367676,321.196350 
	C736.248169,321.279510 737.039368,322.308563 738.007324,323.743073 
M768.437500,299.070648 
	C768.176208,298.864716 767.882080,298.689270 767.658752,298.448212 
	C765.165039,295.756195 762.235962,293.038391 763.950989,288.927399 
	C765.656433,284.839203 769.359009,283.084808 773.563293,282.886108 
	C777.602966,282.695129 780.523010,284.585815 781.953125,288.613800 
	C782.399780,289.871674 783.471436,290.907623 784.387756,292.234589 
	C787.342773,288.017487 787.426086,286.380035 785.230713,282.775421 
	C781.459534,276.583496 772.719666,274.870728 765.217834,278.853546 
	C758.703064,282.312347 755.425903,290.004211 759.143677,296.126709 
	C761.952881,300.752838 766.529541,304.367401 770.569214,308.166779 
	C774.416443,311.785095 779.210388,314.555725 782.477112,318.597137 
	C788.118286,325.576172 785.652893,336.340332 777.909790,341.903351 
	C770.708740,347.076935 765.418335,345.709290 759.024902,337.257812 
	C758.300476,336.300262 756.671631,336.026886 755.462219,335.436279 
	C755.037109,336.918091 754.035706,338.504639 754.282837,339.864227 
	C755.632019,347.286926 763.475403,352.573853 771.041443,351.644470 
	C781.692810,350.336029 787.560547,343.657532 790.538879,334.075958 
	C793.752441,323.737762 789.641846,315.443207 782.007751,308.767090 
	C778.024780,305.283966 773.360352,302.580078 768.437500,299.070648 
M808.828552,278.160217 
	C805.218018,278.822662 801.607483,279.485107 797.971863,280.152130 
	C798.715454,284.578552 800.094299,286.006836 803.867798,284.974976 
	C807.125671,284.084106 810.655396,284.187164 814.300903,283.827515 
	C814.476318,285.644012 814.699768,286.778351 814.677856,287.907898 
	C814.320007,306.375732 813.906433,324.842560 813.582703,343.310944 
	C813.545166,345.453339 813.700684,347.681519 814.296326,349.714783 
	C814.559265,350.612335 816.079529,351.412903 817.165710,351.662170 
	C817.590210,351.759583 818.813599,350.283905 818.939087,349.418243 
	C819.319702,346.794098 819.470276,344.118439 819.480896,341.461914 
	C819.529480,329.298340 819.499390,317.134399 819.498291,304.970612 
	C819.497620,298.043121 819.498230,291.115662 819.498230,283.748352 
	C823.534180,284.144073 826.330200,284.603455 829.131470,284.638184 
	C831.680176,284.669739 835.474670,286.670258 835.963379,282.437317 
	C836.089294,281.347046 832.007874,278.803986 829.700745,278.583221 
	C823.097290,277.951294 816.412476,278.169098 808.828552,278.160217 
z"/>
<path fill="#EEF2FC" opacity="1.000000" stroke="none" 
	d="
M635.645752,352.870544 
	C638.598755,352.264374 641.236816,352.002167 643.708374,351.216522 
	C653.309448,348.164490 662.857727,344.946136 673.075439,341.546082 
	C675.368652,340.778351 677.012085,340.254242 678.655457,339.730164 
	C681.299255,339.247864 683.943115,338.765564 687.185059,338.550964 
	C688.167603,341.200104 689.110779,343.644653 688.850098,345.953308 
	C686.122314,370.117004 683.230713,394.262512 680.249756,418.396423 
	C680.097656,419.627838 678.718567,420.707733 677.910828,421.858185 
	C672.884033,416.648529 667.857178,411.438904 662.468140,405.737091 
	C658.152405,400.096222 658.142273,400.147400 653.473083,404.472504 
	C627.583374,428.454224 597.848633,445.324432 563.107666,452.610535 
	C543.181519,456.789581 523.141785,459.900635 503.001343,453.581360 
	C506.994843,452.432495 510.920746,450.868896 514.993347,450.205444 
	C534.040222,447.102783 551.627014,440.077057 569.070312,430.585632 
	C571.297119,428.863647 572.910400,427.454346 574.784790,426.033936 
	C575.373901,425.628082 575.701965,425.233307 576.029968,424.838501 
	C587.976257,417.526367 599.538818,409.629028 609.586792,399.846008 
	C615.913879,393.685791 621.504150,386.768860 628.318909,379.198273 
	C621.910522,375.770691 616.415771,372.950256 611.053101,369.897766 
	C609.230286,368.860199 607.740295,367.237732 606.098267,365.882507 
	C607.846802,364.275574 609.329529,361.973297 611.391113,361.185211 
	C619.244324,358.183319 627.284180,355.669922 635.645752,352.870544 
z"/>
<path fill="#2F2B31" opacity="1.000000" stroke="none" 
	d="
M662.977661,461.081665 
	C664.224548,460.765930 665.553467,460.052551 666.789246,460.188110 
	C671.550354,460.710449 676.280396,462.097626 681.024231,462.107239 
	C746.341248,462.239838 811.658630,462.201569 876.975891,462.194000 
	C899.306335,462.191437 916.840393,444.616882 916.846313,422.188904 
	C916.863342,357.871368 916.778015,293.553650 916.935486,229.236511 
	C916.958252,219.958847 915.166443,211.470963 910.409302,203.446869 
	C918.906921,209.519897 921.067200,218.654968 922.405518,228.607697 
	C922.350220,239.886276 922.327209,250.708725 922.331665,261.531189 
	C922.354553,317.307617 922.384460,373.084045 922.291382,429.291260 
	C920.778625,435.493347 919.386414,441.264648 917.810425,447.343719 
	C917.432739,448.782867 917.238770,449.914276 917.044800,451.045654 
	C917.044800,451.045654 917.000000,451.000061 916.655151,450.984741 
	C915.887695,451.995239 915.465149,453.021088 915.042603,454.046936 
	C915.042603,454.046936 915.003418,453.997772 914.675354,453.940552 
	C913.909119,454.607056 913.470947,455.330811 913.032776,456.054596 
	C913.032776,456.054596 912.998291,456.006561 912.726929,456.019501 
	C912.312073,456.373322 912.168518,456.714203 912.025024,457.055084 
	C912.025024,457.055084 912.001831,457.001526 911.727539,457.015015 
	C911.310913,457.370728 911.168640,457.712982 911.026367,458.055267 
	C911.026367,458.055267 911.001831,458.002106 910.729004,458.018005 
	C910.311646,458.374481 910.167175,458.715057 910.022705,459.055603 
	C910.022705,459.055603 910.001465,459.001129 909.692749,458.949524 
	C908.920715,459.337738 908.457458,459.777496 907.994202,460.217285 
	C907.967407,460.487091 907.843750,460.700836 907.144775,460.985413 
	C906.446777,461.426575 906.227173,461.740936 906.007568,462.055267 
	C906.007568,462.055267 906.001465,461.998291 905.731323,462.023132 
	C905.317688,462.383636 905.174133,462.719269 905.030579,463.054901 
	C905.030579,463.054901 905.007141,462.997223 904.703247,462.913544 
	C903.933655,463.239166 903.468018,463.648468 903.002319,464.057770 
	C903.002319,464.057770 903.000366,463.999786 902.700317,463.949341 
	C901.934265,464.285034 901.468262,464.671112 901.002258,465.057220 
	C901.002258,465.057220 901.001404,464.999420 900.700989,464.943634 
	C899.934204,465.277557 899.467834,465.667267 899.001465,466.057007 
	C899.001465,466.057037 899.000488,465.999634 898.624512,465.932190 
	C895.503601,466.545685 892.758728,467.226654 889.619934,467.976929 
	C885.571289,468.125519 881.916565,468.273529 878.261841,468.273682 
	C814.668274,468.276672 751.074585,468.286011 687.481140,468.198700 
	C682.962463,468.192505 678.444824,467.448029 673.926697,467.046844 
	C673.926697,467.046844 673.989563,467.018463 674.108093,466.675720 
	C672.125732,465.568604 670.024841,464.804199 667.923950,464.039795 
	C667.923950,464.039795 667.993347,464.019958 668.011475,463.615112 
	C667.331238,463.159119 666.632812,463.108002 665.934387,463.056885 
	C665.934387,463.056885 665.995667,463.014069 666.170471,462.673279 
	C665.867432,462.225372 665.389648,462.118225 664.911804,462.011108 
	C664.911804,462.011108 665.000122,462.001678 665.022339,461.588074 
	C664.343018,461.137085 663.641541,461.099670 662.940063,461.062256 
	C662.940063,461.062256 663.016907,461.074036 662.977661,461.081665 
z"/>
<path fill="#2E2C2F" opacity="1.000000" stroke="none" 
	d="
M503.000488,453.966553 
	C523.141785,459.900635 543.181519,456.789581 563.107666,452.610535 
	C597.848633,445.324432 627.583374,428.454224 653.473083,404.472504 
	C658.142273,400.147400 658.152405,400.096222 662.183228,405.578064 
	C653.296326,413.187683 644.332153,420.464172 635.721680,427.989990 
	C636.075439,428.239319 636.004150,428.182526 635.868652,427.747284 
	C634.833191,427.854797 633.933228,428.397583 633.033203,428.940369 
	C631.603271,429.879791 630.173279,430.819214 628.093811,431.876526 
	C626.623840,432.685089 625.803345,433.375763 624.982788,434.066406 
	C624.982788,434.066406 624.994934,433.995087 624.662109,433.945312 
	C618.656067,437.161560 612.982849,440.427551 607.309570,443.693542 
	C601.509766,446.143219 595.709900,448.592865 589.135010,450.922791 
	C573.502991,455.583740 573.502991,455.583740 574.149902,470.476013 
	C573.859253,486.911560 575.994629,503.256714 566.749207,517.883179 
	C566.829895,517.977539 567.076233,518.008118 567.076233,518.008118 
	C567.076233,518.008118 567.035767,517.993042 566.742554,518.005066 
	C566.307922,518.363586 566.166565,518.710083 566.025146,519.056519 
	C566.025146,519.056519 566.007446,518.998718 565.681885,518.946167 
	C561.907410,522.252991 558.458435,525.612366 555.009521,528.971741 
	C554.052979,529.328552 553.096375,529.685425 551.429443,529.976318 
	C549.144104,530.625000 547.569214,531.339600 545.994324,532.054199 
	C545.994324,532.054138 546.001526,531.998047 545.597412,531.908997 
	C537.074036,532.211853 528.957520,532.849976 520.834778,532.943054 
	C505.178009,533.122620 489.517670,532.982239 473.858826,532.995850 
	C433.547607,533.031006 393.236420,533.077881 352.465759,533.059998 
	C343.314117,532.338989 334.621887,531.678101 325.929688,531.017212 
	C325.929688,531.017212 326.001465,531.000916 325.925659,530.703491 
	C325.201752,530.268555 324.553680,530.131042 323.905609,529.993591 
	C322.655609,529.537598 321.405609,529.081604 320.069702,528.295837 
	C320.397552,527.268494 320.834106,525.954468 321.221527,525.968811 
	C325.030151,526.109802 328.830353,526.729370 332.633362,526.732483 
	C397.888702,526.785828 463.144104,526.772705 528.399475,526.769470 
	C548.473755,526.768433 565.618469,512.930420 567.995911,493.064362 
	C569.402039,481.313934 568.253052,469.257751 568.253052,457.395050 
	C558.692627,458.622223 549.178101,460.756744 539.649841,460.820007 
	C529.286743,460.888824 518.890686,459.192017 508.558319,457.877655 
	C506.587799,457.626984 504.846619,455.573486 503.000488,453.966553 
z"/>
<path fill="#DE95AD" opacity="1.000000" stroke="none" 
	d="
M922.411987,428.860474 
	C922.384460,373.084045 922.354553,317.307617 922.331665,261.531189 
	C922.327209,250.708725 922.350220,239.886276 922.645020,228.594055 
	C922.929565,228.124283 923.401001,228.035019 923.401001,228.035019 
	C923.401001,228.035019 923.880859,228.036713 923.880859,228.036713 
	C923.921204,277.412476 923.967590,326.788208 923.998718,376.163971 
	C924.009583,393.454346 923.983032,410.744751 923.681091,428.501678 
	C923.067444,428.893311 922.741882,428.857391 922.411987,428.860474 
z"/>
<path fill="#DE95AD" opacity="1.000000" stroke="none" 
	d="
M674.106323,467.394806 
	C678.444824,467.448029 682.962463,468.192505 687.481140,468.198700 
	C751.074585,468.286011 814.668274,468.276672 878.261841,468.273682 
	C881.916565,468.273529 885.571289,468.125519 889.886108,468.070068 
	C891.012939,468.352570 891.479675,468.611359 891.946350,468.870117 
	C890.423767,469.241302 888.901550,469.935699 887.378601,469.937164 
	C820.320374,470.001312 753.262085,470.042908 686.204041,469.917328 
	C682.229980,469.909882 678.258606,468.500031 674.106323,467.394806 
z"/>
<path fill="#C1A991" opacity="1.000000" stroke="none" 
	d="
M576.057007,424.510071 
	C575.701965,425.233307 575.373901,425.628082 574.631470,425.585205 
	C574.151306,423.985687 574.028931,422.823944 574.027893,421.662079 
	C573.986694,375.255646 574.026917,328.848969 573.854858,282.443085 
	C573.826416,274.782806 572.873840,267.125977 572.301819,258.789276 
	C570.526123,259.743591 569.470276,260.031494 569.458069,260.358154 
	C569.078125,270.585693 568.799866,280.817047 568.506042,291.047791 
	C567.999329,290.121155 567.105774,289.218018 567.047791,288.264069 
	C566.624878,281.313171 566.545166,274.338043 565.990601,267.399872 
	C565.700195,263.766693 564.669678,260.192719 564.014954,256.239075 
	C566.355469,255.939224 569.040161,255.274460 570.846375,256.244873 
	C572.698242,257.239807 574.716797,259.748962 574.883179,261.743774 
	C575.644043,270.867615 575.780212,280.043549 575.736572,289.938599 
	C575.227417,291.493866 575.031189,292.311279 575.030823,293.128784 
	C575.009766,334.976196 574.996704,376.823578 575.036865,418.670959 
	C575.038269,420.076447 575.595581,421.481445 575.893677,422.886658 
	C575.957153,423.318329 576.020630,423.750000 576.057007,424.510071 
z"/>
<path fill="#3A2D31" opacity="1.000000" stroke="none" 
	d="
M950.089233,106.003845 
	C950.364319,106.532799 950.639404,107.061737 950.522949,107.983215 
	C949.434326,109.938309 948.737244,111.500854 948.040161,113.063416 
	C948.040161,113.063416 948.009583,113.005630 947.675293,113.046082 
	C947.241699,113.745598 947.142456,114.404648 947.043213,115.063698 
	C947.043213,115.063698 947.009827,115.006340 946.675781,114.995682 
	C945.237366,117.678200 944.133057,120.371376 943.028748,123.064560 
	C943.028748,123.064560 943.006592,123.003784 942.677246,123.009293 
	C941.568481,124.698296 940.789001,126.381783 940.009583,128.065277 
	C940.009583,128.065277 939.995850,127.995804 939.679810,128.094696 
	C938.924866,129.483093 938.485962,130.772598 938.046997,132.062103 
	C938.047058,132.062103 938.010620,132.006683 937.666382,132.037262 
	C937.231384,132.732208 937.140625,133.396576 937.049927,134.060959 
	C937.049927,134.060959 937.010071,134.006683 936.657776,134.025665 
	C936.222778,134.716049 936.140076,135.387466 936.057373,136.058884 
	C936.057373,136.058884 936.008057,136.007828 935.654541,136.021606 
	C935.219543,136.709808 935.138000,137.384232 935.056519,138.058655 
	C935.056519,138.058655 935.005127,138.004730 934.673706,137.959427 
	C933.559937,139.632736 932.777527,141.351349 931.995178,143.069977 
	C930.021240,146.834274 928.251770,150.730972 925.950745,154.283401 
	C925.245911,155.371704 923.083496,155.515945 921.588562,156.092468 
	C921.592041,154.586227 921.142578,152.882797 921.694397,151.615234 
	C922.806335,149.060745 924.463196,146.743408 926.267395,143.765457 
	C926.741150,142.449707 926.842712,141.696732 926.944214,140.943756 
	C926.944214,140.943756 926.992615,140.993088 927.318054,140.973785 
	C929.076050,137.617783 930.508606,134.281097 931.941162,130.944397 
	C931.941162,130.944397 931.997559,130.999619 932.309570,131.121216 
	C934.729553,126.808487 936.837646,122.374161 938.945679,117.939835 
	C938.945679,117.939835 938.994324,117.994408 939.323486,118.040024 
	C940.095825,117.034286 940.539062,115.982933 940.982239,114.931564 
	C940.982239,114.931564 940.997559,114.999130 941.303101,114.931030 
	C941.731567,114.219109 941.854431,113.575272 941.977295,112.931442 
	C941.977295,112.931450 941.994934,112.997314 942.309570,112.934753 
	C942.739258,112.225739 942.854248,111.579292 942.969238,110.932838 
	C942.969238,110.932838 942.991943,110.995361 943.319397,110.947044 
	C943.751892,110.244064 943.856934,109.589401 943.961975,108.934738 
	C943.961975,108.934731 943.990173,108.994194 944.326172,108.948654 
	C944.759033,108.248108 944.855957,107.593102 944.952881,106.938103 
	C944.952881,106.938103 944.993225,106.993515 945.284973,107.035828 
	C945.715332,106.694717 945.853943,106.311287 945.992554,105.927864 
	C945.992615,105.927872 945.995178,105.993935 946.373169,106.072777 
	C947.863831,106.102364 948.976562,106.053108 950.089233,106.003845 
z"/>
<path fill="#3B342E" opacity="1.000000" stroke="none" 
	d="
M250.973999,225.970718 
	C252.446136,226.951797 253.918259,227.932877 255.828430,229.295303 
	C256.866913,229.771622 257.467407,229.866608 258.067871,229.961594 
	C258.067871,229.961594 258.007416,229.988556 258.008728,230.320877 
	C260.357910,231.747253 262.705841,232.841293 265.053741,233.935349 
	C265.053741,233.935349 265.000000,233.999390 264.843964,234.299149 
	C267.815704,236.393173 270.943512,238.187424 274.071289,239.981674 
	C274.071289,239.981674 274.005585,239.993225 273.986694,240.242981 
	C274.293091,240.637451 274.618347,240.782181 274.943604,240.926910 
	C278.043732,243.168381 281.143829,245.409866 284.947754,248.160217 
	C277.984070,252.258163 275.576141,245.549133 271.073425,244.039932 
	C270.162628,243.304840 269.551666,243.172455 268.940674,243.040070 
	C268.940674,243.040070 268.992157,243.003433 268.911926,242.687897 
	C268.199158,242.261475 267.566681,242.150604 266.934174,242.039734 
	C266.934174,242.039749 266.993225,242.010010 267.025848,241.681305 
	C264.350739,239.916168 261.642975,238.479736 258.935242,237.043304 
	C258.935242,237.043304 258.994263,237.008408 259.082153,236.655670 
	C258.093414,235.888367 257.016754,235.473785 255.940109,235.059204 
	C255.940109,235.059204 256.001404,235.003052 256.149292,234.708435 
	C254.522308,233.275009 252.747437,232.136200 250.972549,230.997406 
	C250.055634,230.518265 249.138718,230.039124 247.909515,228.962494 
	C245.712585,227.597412 243.827911,226.829865 241.943237,226.062317 
	C241.943237,226.062317 242.000397,226.001724 242.134171,225.695618 
	C241.077789,224.019943 239.887650,222.650360 238.697495,221.280777 
	C238.899460,221.007660 239.101425,220.734543 239.303391,220.461426 
	C241.890900,221.291885 244.478394,222.122360 247.065903,222.952835 
	C247.065903,222.952835 247.006271,222.990387 246.947830,223.304703 
	C248.250931,224.402924 249.612457,225.186829 250.973999,225.970718 
z"/>
<path fill="#776B5C" opacity="1.000000" stroke="none" 
	d="
M352.925201,533.120117 
	C393.236420,533.077881 433.547607,533.031006 473.858826,532.995850 
	C489.517670,532.982239 505.178009,533.122620 520.834778,532.943054 
	C528.957520,532.849976 537.074036,532.211853 545.620789,531.924927 
	C543.462830,532.685852 540.878357,533.910278 538.291931,533.914368 
	C476.815704,534.011292 415.339294,533.976990 353.392029,533.719116 
	C352.921112,533.471497 352.925201,533.120056 352.925201,533.120117 
z"/>
<path fill="#3A2D31" opacity="1.000000" stroke="none" 
	d="
M944.845093,154.364410 
	C946.847900,152.948563 948.707153,151.203766 950.908447,150.242432 
	C952.191956,149.681931 954.023071,150.375351 955.607849,150.504593 
	C955.009705,151.883316 954.794983,153.807251 953.746033,154.544846 
	C949.568542,157.482559 945.131042,160.050583 940.170288,162.925446 
	C939.365906,163.420135 939.181091,163.744873 938.996277,164.069611 
	C938.996277,164.069611 939.000916,164.002640 938.670776,163.926941 
	C936.530518,164.941193 934.720398,166.031174 932.910278,167.121155 
	C932.441223,166.969223 931.972168,166.817291 931.503113,166.665359 
	C931.932983,165.064392 932.018066,163.237122 932.882019,161.921143 
	C933.906250,160.360916 935.601379,159.241104 937.005737,157.930420 
	C937.005737,157.930420 936.998962,157.997543 937.296631,158.068970 
	C938.069885,157.739243 938.545410,157.338074 939.020996,156.936920 
	C939.020996,156.936935 939.011963,157.013947 939.275879,156.979401 
	C939.692383,156.606476 939.845032,156.268097 939.997681,155.929718 
	C939.997681,155.929718 939.996948,155.994858 940.297180,156.093903 
	C941.070862,155.773407 941.544312,155.353851 942.017700,154.934326 
	C942.017761,154.934341 942.002258,155.001450 942.266357,155.074921 
	C943.302063,154.887085 944.073547,154.625748 944.845093,154.364410 
z"/>
<path fill="#FFFF80" opacity="1.000000" stroke="none" 
	d="
M575.942139,422.429596 
	C575.595581,421.481445 575.038269,420.076447 575.036865,418.670959 
	C574.996704,376.823578 575.009766,334.976196 575.030823,293.128784 
	C575.031189,292.311279 575.227417,291.493866 575.635132,290.406738 
	C575.955505,334.082214 575.973083,378.027374 575.942139,422.429596 
z"/>
<path fill="#AB7787" opacity="1.000000" stroke="none" 
	d="
M897.056213,152.070969 
	C894.648254,153.994720 892.711670,153.563354 892.017395,150.565979 
	C891.361572,147.734955 890.831055,144.748901 891.004700,141.876968 
	C891.418518,135.036713 892.143433,128.204575 893.084473,121.416534 
	C893.260376,120.148201 895.028625,119.100647 896.062012,117.951218 
	C897.064453,119.160439 898.932373,120.374344 898.925842,121.578102 
	C898.889221,128.335800 898.380188,135.090088 898.075806,141.847488 
	C897.927124,145.148376 897.872437,148.453506 897.180115,151.528488 
	C896.585022,140.975235 896.585022,130.650208 896.585022,119.022987 
	C895.424744,120.717964 894.192566,121.698029 894.114807,122.762451 
	C893.536072,130.682785 893.232910,138.622726 892.742065,146.550247 
	C892.542664,149.772415 894.290222,151.269608 897.056213,152.070969 
z"/>
<path fill="#AB7787" opacity="1.000000" stroke="none" 
	d="
M923.969971,227.609070 
	C923.880859,228.036713 923.401001,228.035019 923.401001,228.035019 
	C923.401001,228.035019 922.929565,228.124283 922.690002,228.137939 
	C921.067200,218.654968 918.906921,209.519897 910.481201,203.092178 
	C908.802795,201.220230 907.458374,199.400650 906.101746,197.215393 
	C906.529724,196.880600 906.969849,196.911530 907.862976,197.235626 
	C908.603271,197.693314 908.901611,197.834732 909.210938,197.953018 
	C918.537720,205.472092 923.417664,215.250183 923.969971,227.609070 
z"/>
<path fill="#C1A991" opacity="1.000000" stroke="none" 
	d="
M566.668518,517.788879 
	C575.994629,503.256714 573.859253,486.911560 574.380859,470.498993 
	C574.682556,470.059021 575.141968,470.127350 575.101624,470.584961 
	C575.161255,480.027771 575.261169,489.012939 575.361084,497.998108 
	C575.333313,505.021576 572.554871,511.079559 568.079102,517.095337 
	C567.149902,517.534485 566.909180,517.661682 566.668518,517.788879 
z"/>
<path fill="#AB7787" opacity="1.000000" stroke="none" 
	d="
M575.141968,470.127350 
	C575.141968,470.127350 574.682556,470.059021 574.451538,470.036011 
	C573.502991,455.583740 573.502991,455.583740 588.752747,450.905823 
	C584.899292,453.036804 580.652954,455.065002 575.908875,457.330963 
	C575.908875,460.835083 575.908875,464.949036 575.689880,469.559448 
	C575.470886,470.055908 575.141968,470.127350 575.141968,470.127350 
z"/>
<path fill="#AB9774" opacity="1.000000" stroke="none" 
	d="
M247.939804,263.955170 
	C248.617996,263.324127 249.443665,262.044403 249.952118,262.160004 
	C256.904358,263.740601 263.812805,265.513916 270.903259,267.587616 
	C271.074493,267.935394 271.049438,267.951019 270.663239,268.143799 
	C262.838470,266.878021 255.399872,265.419495 247.964264,263.970032 
	C247.967239,263.979065 247.939804,263.955170 247.939804,263.955170 
z"/>
<path fill="#AB9774" opacity="1.000000" stroke="none" 
	d="
M271.084778,267.924805 
	C271.681885,268.775513 272.268677,269.636810 272.855469,270.498138 
	C271.734344,270.974060 270.547119,271.973419 269.502808,271.841492 
	C262.417175,270.946686 255.361679,269.813141 248.109741,268.409271 
	C247.923035,268.061798 247.954193,268.048157 248.364883,267.883942 
	C254.304184,268.808136 259.820526,269.965363 265.366913,270.954224 
	C267.916290,271.408752 270.798340,272.046173 271.049438,267.951019 
	C271.049438,267.951019 271.074493,267.935394 271.084778,267.924805 
z"/>
<path fill="#AB7787" opacity="1.000000" stroke="none" 
	d="
M607.579346,443.456482 
	C612.982849,440.427551 618.656067,437.161560 624.697876,433.950867 
	C620.274231,438.846832 614.663513,442.157898 607.579346,443.456482 
z"/>
<path fill="#AB7787" opacity="1.000000" stroke="none" 
	d="
M922.291382,429.291260 
	C922.741882,428.857391 923.067444,428.893311 923.634705,428.966003 
	C922.685974,434.745239 921.491211,440.526733 919.801880,446.697418 
	C918.869568,447.069702 918.431885,447.052826 917.994141,447.035950 
	C919.386414,441.264648 920.778625,435.493347 922.291382,429.291260 
z"/>
<path fill="#AB7787" opacity="1.000000" stroke="none" 
	d="
M936.640991,157.976929 
	C935.601379,159.241104 933.906250,160.360916 932.882019,161.921143 
	C932.018066,163.237122 931.932983,165.064392 931.503113,166.665359 
	C931.972168,166.817291 932.441223,166.969223 932.910278,167.121155 
	C934.720398,166.031174 936.530518,164.941193 938.703674,163.933655 
	C938.356873,164.901306 937.700012,165.836151 936.926331,166.661545 
	C935.209045,168.493744 932.864807,170.741898 930.940491,168.090256 
	C929.881653,166.631256 930.620972,163.219666 931.576111,161.165771 
	C932.255188,159.705566 934.648132,159.042358 936.640991,157.976929 
z"/>
<path fill="#AB9774" opacity="1.000000" stroke="none" 
	d="
M352.465759,533.059937 
	C352.925201,533.120056 352.921112,533.471497 352.923584,533.647217 
	C343.989380,533.597595 334.891876,535.427490 326.078247,531.375122 
	C334.621887,531.678101 343.314117,532.338989 352.465759,533.059937 
z"/>
<path fill="#AB9774" opacity="1.000000" stroke="none" 
	d="
M246.951447,222.607971 
	C244.478394,222.122360 241.890900,221.291885 239.303391,220.461426 
	C239.101425,220.734543 238.899460,221.007660 238.697495,221.280777 
	C239.887650,222.650360 241.077789,224.019943 242.109863,225.729630 
	C238.537308,225.167374 236.414108,223.333786 237.095016,219.352234 
	C241.013855,218.235657 244.244751,219.159363 246.951447,222.607971 
z"/>
<path fill="#FFFF80" opacity="1.000000" stroke="none" 
	d="
M575.101624,470.584961 
	C575.141968,470.127350 575.470886,470.055908 575.635315,470.020813 
	C575.863586,479.151428 575.927429,488.317169 575.676147,497.740479 
	C575.261169,489.012939 575.161255,480.027771 575.101624,470.584961 
z"/>
<path fill="#776B5C" opacity="1.000000" stroke="none" 
	d="
M555.343994,528.884033 
	C558.458435,525.612366 561.907410,522.252991 565.706421,518.963867 
	C562.597107,522.288208 559.137817,525.542236 555.343994,528.884033 
z"/>
<path fill="#AB7787" opacity="1.000000" stroke="none" 
	d="
M938.606323,118.044548 
	C936.837646,122.374161 934.729553,126.808487 932.276367,131.099823 
	C934.043091,126.687630 936.154968,122.418449 938.606323,118.044548 
z"/>
<path fill="#AB7787" opacity="1.000000" stroke="none" 
	d="
M931.606323,131.060364 
	C930.508606,134.281097 929.076050,137.617783 927.283752,140.969681 
	C928.373169,137.715363 929.822266,134.445847 931.606323,131.060364 
z"/>
<path fill="#AB9774" opacity="1.000000" stroke="none" 
	d="
M273.958954,239.654221 
	C270.943512,238.187424 267.815704,236.393173 264.869568,234.265747 
	C267.983002,235.730652 270.914795,237.528702 273.958954,239.654221 
z"/>
<path fill="#C1A991" opacity="1.000000" stroke="none" 
	d="
M286.887726,228.113266 
	C285.258362,225.662231 283.628998,223.211212 281.988342,220.391571 
	C281.977081,220.022949 281.953430,220.044403 282.294128,219.891235 
	C284.330444,222.286896 286.026031,224.835724 287.512848,227.566360 
	C287.165283,227.869873 287.026489,227.991577 286.887726,228.113266 
z"/>
<path fill="#C1A991" opacity="1.000000" stroke="none" 
	d="
M295.097076,229.905838 
	C295.964417,231.617294 296.831757,233.328766 298.092499,235.816528 
	C295.091217,235.816528 293.211121,235.816528 291.324310,235.247009 
	C291.463470,234.530624 291.609344,234.383774 292.046936,234.384979 
	C298.277374,235.997131 293.671021,231.197067 295.060516,229.940292 
	C295.063843,229.923782 295.097076,229.905838 295.097076,229.905838 
z"/>
<path fill="#AB9774" opacity="1.000000" stroke="none" 
	d="
M259.066406,237.362930 
	C261.642975,238.479736 264.350739,239.916168 267.020813,241.713989 
	C264.387939,240.611084 261.792786,239.146820 259.066406,237.362930 
z"/>
<path fill="#776B5C" opacity="1.000000" stroke="none" 
	d="
M892.317139,468.943359 
	C891.479675,468.611359 891.012939,468.352570 890.280029,468.000702 
	C892.758728,467.226654 895.503601,466.545685 898.649414,465.946533 
	C896.929504,467.024414 894.808716,468.020477 892.317139,468.943359 
z"/>
<path fill="#AB7787" opacity="1.000000" stroke="none" 
	d="
M943.341064,122.900002 
	C944.133057,120.371376 945.237366,117.678200 946.708618,115.000153 
	C945.934814,117.588669 944.794067,120.162056 943.341064,122.900002 
z"/>
<path fill="#AB9774" opacity="1.000000" stroke="none" 
	d="
M264.937622,233.604645 
	C262.705841,232.841293 260.357910,231.747253 258.010010,230.287811 
	C260.280487,231.039581 262.550995,232.156769 264.937622,233.604645 
z"/>
<path fill="#C1A991" opacity="1.000000" stroke="none" 
	d="
M281.962708,220.031769 
	C281.846069,218.333176 281.743805,216.625748 281.641510,214.918335 
	C283.015533,215.033737 284.389526,215.149155 285.738312,215.765610 
	C285.584351,216.386230 285.455627,216.505783 285.018799,216.434387 
	C280.135254,214.858109 283.266754,219.063400 281.953430,220.044403 
	C281.953430,220.044403 281.977081,220.022949 281.962708,220.031769 
z"/>
<path fill="#DE95AD" opacity="1.000000" stroke="none" 
	d="
M668.058716,464.371887 
	C670.024841,464.804199 672.125732,465.568604 674.105774,466.710144 
	C672.054443,466.292877 670.124023,465.498444 668.058716,464.371887 
z"/>
<path fill="#AB9774" opacity="1.000000" stroke="none" 
	d="
M251.052246,231.328293 
	C252.747437,232.136200 254.522308,233.275009 256.122620,234.740723 
	C254.342697,233.931488 252.737320,232.795334 251.052246,231.328293 
z"/>
<path fill="#AB9774" opacity="1.000000" stroke="none" 
	d="
M242.053833,226.403946 
	C243.827911,226.829865 245.712585,227.597412 247.790985,228.652679 
	C246.044601,228.208771 244.104523,227.477173 242.053833,226.403946 
z"/>
<path fill="#C1A991" opacity="1.000000" stroke="none" 
	d="
M291.114502,222.893921 
	C292.090698,224.331268 293.066895,225.768600 293.878845,227.720322 
	C293.580505,228.346008 293.446472,228.457306 293.104889,228.326477 
	C292.015778,226.607712 291.134186,225.131073 290.468292,223.464539 
	C290.827484,223.147720 290.970978,223.020828 291.114502,222.893921 
z"/>
<path fill="#AB7787" opacity="1.000000" stroke="none" 
	d="
M948.355286,112.951393 
	C948.737244,111.500854 949.434326,109.938309 950.452515,108.295540 
	C950.072510,109.756676 949.371460,111.298027 948.355286,112.951393 
z"/>
<path fill="#AB7787" opacity="1.000000" stroke="none" 
	d="
M940.331970,127.941666 
	C940.789001,126.381783 941.568481,124.698296 942.709595,123.009033 
	C942.265686,124.608185 941.460022,126.213127 940.331970,127.941666 
z"/>
<path fill="#AB7787" opacity="1.000000" stroke="none" 
	d="
M932.319336,142.941803 
	C932.777527,141.351349 933.559937,139.632736 934.708984,137.971603 
	C934.264893,139.623932 933.454224,141.218781 932.319336,142.941803 
z"/>
<path fill="#AB7787" opacity="1.000000" stroke="none" 
	d="
M950.044312,105.644051 
	C948.976562,106.053108 947.863831,106.102364 946.340820,106.065979 
	C947.052002,104.376007 948.120972,102.464455 950.044312,105.644051 
z"/>
<path fill="#776B5C" opacity="1.000000" stroke="none" 
	d="
M917.810425,447.343719 
	C918.431885,447.052826 918.869568,447.069702 919.632324,447.037903 
	C919.195801,448.276367 918.434326,449.563568 917.358826,450.948181 
	C917.238770,449.914276 917.432739,448.782867 917.810425,447.343719 
z"/>
<path fill="#C1A991" opacity="1.000000" stroke="none" 
	d="
M289.918518,233.079758 
	C288.998627,231.631378 288.078766,230.183014 287.023315,228.423950 
	C287.026489,227.991577 287.165283,227.869873 287.727722,227.830322 
	C288.750183,229.623474 289.348938,231.334488 289.946228,233.053009 
	C289.944733,233.060501 289.918518,233.079758 289.918518,233.079758 
z"/>
<path fill="#776B5C" opacity="1.000000" stroke="none" 
	d="
M546.375977,532.045410 
	C547.569214,531.339600 549.144104,530.625000 551.119141,529.958069 
	C549.932007,530.682678 548.344788,531.359619 546.375977,532.045410 
z"/>
<path fill="#AB9774" opacity="1.000000" stroke="none" 
	d="
M250.908340,225.639557 
	C249.612457,225.186829 248.250931,224.402924 246.958984,223.271271 
	C248.299942,223.718491 249.571304,224.513443 250.908340,225.639557 
z"/>
<path fill="#C1A991" opacity="1.000000" stroke="none" 
	d="
M287.113068,216.891190 
	C287.754578,217.679581 288.396057,218.467987 288.869385,219.755066 
	C288.564728,220.371078 288.428314,220.488419 288.095154,220.378677 
	C287.342529,219.308578 286.786591,218.465561 286.453033,217.441833 
	C286.821289,217.137817 286.967163,217.014496 287.113068,216.891190 
z"/>
<path fill="#776B5C" opacity="1.000000" stroke="none" 
	d="
M915.353027,453.938751 
	C915.465149,453.021088 915.887695,451.995239 916.683105,451.000244 
	C916.591797,451.964233 916.127625,452.897400 915.353027,453.938751 
z"/>
<path fill="#C1A991" opacity="1.000000" stroke="none" 
	d="
M288.905426,220.077240 
	C289.751190,220.684784 290.392700,221.468842 291.074341,222.573395 
	C290.970978,223.020828 290.827484,223.147720 290.261536,223.237732 
	C289.323395,222.335815 288.807648,221.470795 288.291870,220.605774 
	C288.428314,220.488419 288.564728,220.371078 288.905426,220.077240 
z"/>
<path fill="#AB7787" opacity="1.000000" stroke="none" 
	d="
M938.369995,131.937317 
	C938.485962,130.772598 938.924866,129.483093 939.714478,128.087479 
	C939.607849,129.258423 939.150452,130.535477 938.369995,131.937317 
z"/>
<path fill="#AB9774" opacity="1.000000" stroke="none" 
	d="
M256.036072,235.379456 
	C257.016754,235.473785 258.093414,235.888367 259.071289,236.688187 
	C258.025726,236.615524 257.078857,236.157623 256.036072,235.379456 
z"/>
<path fill="#AB9774" opacity="1.000000" stroke="none" 
	d="
M247.911606,268.074463 
	C247.697311,266.809967 247.494446,265.532745 247.615692,264.105347 
	C247.939804,263.955170 247.967239,263.979065 248.043533,264.377808 
	C248.064606,265.867096 248.009399,266.957642 247.954193,268.048157 
	C247.954193,268.048157 247.923035,268.061798 247.911606,268.074463 
z"/>
<path fill="#776B5C" opacity="1.000000" stroke="none" 
	d="
M913.381226,456.044067 
	C913.470947,455.330811 913.909119,454.607056 914.701050,453.959106 
	C914.613098,454.701080 914.171326,455.367279 913.381226,456.044067 
z"/>
<path fill="#AB7787" opacity="1.000000" stroke="none" 
	d="
M625.320312,434.027832 
	C625.803345,433.375763 626.623840,432.685089 627.787109,431.994324 
	C627.305847,432.659241 626.481873,433.324249 625.320312,434.027832 
z"/>
<path fill="#AB7787" opacity="1.000000" stroke="none" 
	d="
M940.671021,115.038681 
	C940.539062,115.982933 940.095825,117.034286 939.288818,118.028297 
	C939.403320,117.029228 939.881592,116.087517 940.671021,115.038681 
z"/>
<path fill="#AB7787" opacity="1.000000" stroke="none" 
	d="
M926.627930,141.037689 
	C926.842712,141.696732 926.741150,142.449707 926.438721,143.439026 
	C926.262451,142.827469 926.286987,141.979553 926.627930,141.037689 
z"/>
<path fill="#DE95AD" opacity="1.000000" stroke="none" 
	d="
M633.394409,428.919281 
	C633.933228,428.397583 634.833191,427.854797 635.882324,427.703857 
	C635.272888,428.363159 634.514282,428.630676 633.394409,428.919281 
z"/>
<path fill="#AB7787" opacity="1.000000" stroke="none" 
	d="
M944.515686,154.286926 
	C944.073547,154.625748 943.302063,154.887085 942.233154,155.065857 
	C942.685974,154.725342 943.436157,154.467392 944.515686,154.286926 
z"/>
<path fill="#C1A991" opacity="1.000000" stroke="none" 
	d="
M551.975830,252.590149 
	C551.260254,252.787415 550.394470,252.651581 549.257446,252.327042 
	C549.932678,252.177887 550.879150,252.217453 551.975830,252.590149 
z"/>
<path fill="#AB7787" opacity="1.000000" stroke="none" 
	d="
M941.671997,113.042786 
	C941.854431,113.575272 941.731567,114.219109 941.268921,114.936661 
	C941.075012,114.391640 941.220886,113.772888 941.671997,113.042786 
z"/>
<path fill="#AB7787" opacity="1.000000" stroke="none" 
	d="
M938.702515,156.973679 
	C938.545410,157.338074 938.069885,157.739243 937.263733,158.061584 
	C937.416748,157.658646 937.900452,157.334534 938.702515,156.973679 
z"/>
<path fill="#AB9774" opacity="1.000000" stroke="none" 
	d="
M324.013428,530.308472 
	C324.553680,530.131042 325.201752,530.268555 325.933899,530.739380 
	C325.385742,530.922852 324.753510,530.773071 324.013428,530.308472 
z"/>
<path fill="#AB7787" opacity="1.000000" stroke="none" 
	d="
M935.366516,137.963730 
	C935.138000,137.384232 935.219543,136.709808 935.689697,136.026947 
	C935.944336,136.635254 935.810425,137.252029 935.366516,137.963730 
z"/>
<path fill="#776B5C" opacity="1.000000" stroke="none" 
	d="
M899.324341,466.046906 
	C899.467834,465.667267 899.934204,465.277557 900.725647,464.958771 
	C900.582947,465.365387 900.115112,465.701080 899.324341,466.046906 
z"/>
<path fill="#776B5C" opacity="1.000000" stroke="none" 
	d="
M901.321838,465.044159 
	C901.468262,464.671112 901.934265,464.285034 902.725830,463.963287 
	C902.581360,464.362122 902.111389,464.696594 901.321838,465.044159 
z"/>
<path fill="#AB7787" opacity="1.000000" stroke="none" 
	d="
M941.698975,154.971649 
	C941.544312,155.353851 941.070862,155.773407 940.265869,156.084991 
	C940.416260,155.654343 940.898254,155.331665 941.698975,154.971649 
z"/>
<path fill="#776B5C" opacity="1.000000" stroke="none" 
	d="
M903.328003,464.056427 
	C903.468018,463.648468 903.933655,463.239166 904.723389,462.937683 
	C904.582825,463.382050 904.118286,463.718567 903.328003,464.056427 
z"/>
<path fill="#DE95AD" opacity="1.000000" stroke="none" 
	d="
M666.052490,463.354614 
	C666.632812,463.108002 667.331238,463.159119 668.019958,463.650208 
	C667.397034,463.944214 666.783752,463.798248 666.052490,463.354614 
z"/>
<path fill="#DE95AD" opacity="1.000000" stroke="none" 
	d="
M663.070435,461.348938 
	C663.641541,461.099670 664.343018,461.137085 665.026794,461.632263 
	C664.406311,461.938538 663.803589,461.787079 663.070435,461.348938 
z"/>
<path fill="#776B5C" opacity="1.000000" stroke="none" 
	d="
M908.305298,460.134460 
	C908.457458,459.777496 908.920715,459.337738 909.717041,458.965790 
	C909.572205,459.372955 909.094360,459.712280 908.305298,460.134460 
z"/>
<path fill="#AB7787" opacity="1.000000" stroke="none" 
	d="
M944.646729,107.043015 
	C944.855957,107.593102 944.759033,108.248108 944.293335,108.950897 
	C944.063171,108.381775 944.201843,107.764854 944.646729,107.043015 
z"/>
<path fill="#C1A991" opacity="1.000000" stroke="none" 
	d="
M291.098450,234.897308 
	C290.574310,234.645554 290.269379,234.173981 289.941467,233.391083 
	C289.918518,233.079758 289.944733,233.060501 290.241302,232.931747 
	C290.943634,233.280975 291.349396,233.758957 291.755188,234.236938 
	C291.609344,234.383774 291.463470,234.530624 291.098450,234.897308 
z"/>
<path fill="#AB7787" opacity="1.000000" stroke="none" 
	d="
M947.346802,114.954750 
	C947.142456,114.404648 947.241699,113.745598 947.707886,113.044266 
	C947.933411,113.616592 947.791931,114.231201 947.346802,114.954750 
z"/>
<path fill="#AB7787" opacity="1.000000" stroke="none" 
	d="
M942.666992,111.047050 
	C942.854248,111.579292 942.739258,112.225739 942.275879,112.939713 
	C942.073242,112.391899 942.218994,111.776581 942.666992,111.047050 
z"/>
<path fill="#AB7787" opacity="1.000000" stroke="none" 
	d="
M943.659485,109.046661 
	C943.856934,109.589401 943.751892,110.244064 943.286255,110.950401 
	C943.069519,110.387581 943.213257,109.773087 943.659485,109.046661 
z"/>
<path fill="#AB9774" opacity="1.000000" stroke="none" 
	d="
M257.965942,229.661987 
	C257.467407,229.866608 256.866913,229.771622 256.164062,229.361267 
	C256.662476,229.151382 257.263245,229.256866 257.965942,229.661987 
z"/>
<path fill="#C1A991" opacity="1.000000" stroke="none" 
	d="
M293.914551,228.066467 
	C294.425018,228.361725 294.735504,228.825226 295.071533,229.597290 
	C295.097076,229.905838 295.063843,229.923782 294.745331,230.056244 
	C294.055359,229.648682 293.683868,229.108643 293.312408,228.568604 
	C293.446472,228.457306 293.580505,228.346008 293.914551,228.066467 
z"/>
<path fill="#AB9774" opacity="1.000000" stroke="none" 
	d="
M267.046692,242.339142 
	C267.566681,242.150604 268.199158,242.261475 268.909576,242.719391 
	C268.378052,242.923798 267.768646,242.781174 267.046692,242.339142 
z"/>
<path fill="#AB7787" opacity="1.000000" stroke="none" 
	d="
M936.369019,135.965195 
	C936.140076,135.387466 936.222778,134.716049 936.691406,134.028214 
	C936.945068,134.631683 936.812866,135.251587 936.369019,135.965195 
z"/>
<path fill="#AB9774" opacity="1.000000" stroke="none" 
	d="
M269.025482,243.360748 
	C269.551666,243.172455 270.162628,243.304840 270.892334,243.754730 
	C270.377441,243.941971 269.743866,243.811707 269.025482,243.360748 
z"/>
<path fill="#AB7787" opacity="1.000000" stroke="none" 
	d="
M937.352356,133.952332 
	C937.140625,133.396576 937.231384,132.732208 937.699463,132.038086 
	C937.936218,132.620132 937.795471,133.231918 937.352356,133.952332 
z"/>
<path fill="#C1A991" opacity="1.000000" stroke="none" 
	d="
M285.905792,216.086929 
	C286.379944,216.076538 286.661407,216.245895 287.027954,216.653229 
	C286.967163,217.014496 286.821289,217.137817 286.292603,217.284363 
	C285.697906,217.095169 285.503632,216.867737 285.326904,216.625320 
	C285.455627,216.505783 285.584351,216.386230 285.905792,216.086929 
z"/>
<path fill="#AB7787" opacity="1.000000" stroke="none" 
	d="
M939.258606,163.975616 
	C939.181091,163.744873 939.365906,163.420135 939.853821,163.039978 
	C939.944885,163.283600 939.732910,163.582626 939.258606,163.975616 
z"/>
<path fill="#776B5C" opacity="1.000000" stroke="none" 
	d="
M911.294312,458.001801 
	C911.168640,457.712982 911.310913,457.370728 911.754150,457.026794 
	C911.890869,457.332855 911.726562,457.640594 911.294312,458.001801 
z"/>
<path fill="#DE95AD" opacity="1.000000" stroke="none" 
	d="
M909.086182,197.719208 
	C908.901611,197.834732 908.603271,197.693314 908.182983,197.320068 
	C908.353882,197.236023 908.657715,197.360703 909.086182,197.719208 
z"/>
<path fill="#776B5C" opacity="1.000000" stroke="none" 
	d="
M566.291138,519.000549 
	C566.166565,518.710083 566.307922,518.363586 566.752563,518.023926 
	C566.889648,518.335327 566.723389,518.639954 566.291138,519.000549 
z"/>
<path fill="#776B5C" opacity="1.000000" stroke="none" 
	d="
M566.749207,517.883179 
	C566.909180,517.661682 567.149902,517.534485 567.781616,517.289185 
	C567.974243,517.433777 567.776001,517.696350 567.327026,517.983521 
	C567.076233,518.008118 566.829895,517.977539 566.749207,517.883179 
z"/>
<path fill="#AB7787" opacity="1.000000" stroke="none" 
	d="
M939.735596,156.010376 
	C939.845032,156.268097 939.692383,156.606476 939.237244,156.976166 
	C939.114319,156.701981 939.293884,156.396515 939.735596,156.010376 
z"/>
<path fill="#DE95AD" opacity="1.000000" stroke="none" 
	d="
M664.988647,462.273438 
	C665.389648,462.118225 665.867432,462.225372 666.158508,462.708740 
	C665.669678,462.901886 665.367615,462.718842 664.988647,462.273438 
z"/>
<path fill="#AB7787" opacity="1.000000" stroke="none" 
	d="
M945.725830,105.993797 
	C945.853943,106.311287 945.715332,106.694717 945.251831,107.027054 
	C945.104309,106.670547 945.281738,106.365143 945.725830,105.993797 
z"/>
<path fill="#776B5C" opacity="1.000000" stroke="none" 
	d="
M910.289429,458.999268 
	C910.167175,458.715057 910.311646,458.374481 910.755798,458.029785 
	C910.888977,458.331390 910.722473,458.637146 910.289429,458.999268 
z"/>
<path fill="#776B5C" opacity="1.000000" stroke="none" 
	d="
M912.290039,456.996796 
	C912.168518,456.714203 912.312073,456.373322 912.755005,456.028748 
	C912.888000,456.329559 912.721558,456.634033 912.290039,456.996796 
z"/>
<path fill="#AB9774" opacity="1.000000" stroke="none" 
	d="
M274.918854,240.666946 
	C274.618347,240.782181 274.293091,240.637451 273.988373,240.209656 
	C274.303986,240.086716 274.599030,240.246841 274.918854,240.666946 
z"/>
<path fill="#776B5C" opacity="1.000000" stroke="none" 
	d="
M906.289062,461.983582 
	C906.227173,461.740936 906.446777,461.426575 906.969177,461.057739 
	C907.038208,461.306122 906.804382,461.609009 906.289062,461.983582 
z"/>
<path fill="#776B5C" opacity="1.000000" stroke="none" 
	d="
M905.296143,462.996399 
	C905.174133,462.719269 905.317688,462.383636 905.758179,462.033081 
	C905.890686,462.324707 905.726257,462.631287 905.296143,462.996399 
z"/>
<path fill="#323033" opacity="1.000000" stroke="none" 
	d="
M409.659851,341.392365 
	C418.804901,340.779572 424.485077,344.742401 427.815765,354.116638 
	C431.881958,365.560760 432.393250,377.440491 429.406921,389.034607 
	C427.407593,396.796692 424.342896,404.622192 420.113678,411.394348 
	C413.453003,422.059998 402.606964,421.593384 396.223114,410.720764 
	C385.543823,392.532318 387.175110,373.815155 395.083191,355.112244 
	C397.853790,348.559692 401.875732,343.267944 409.659851,341.392365 
M405.579773,411.038177 
	C407.723389,410.692780 410.482422,411.058655 411.879242,409.850098 
	C414.577667,407.515381 417.097198,404.579926 418.653809,401.387756 
	C425.338837,387.678650 426.090881,373.266693 422.547272,358.583099 
	C422.015015,356.377594 420.885162,354.206665 419.598083,352.314758 
	C416.501312,347.762909 412.044678,346.899170 407.561279,350.098236 
	C405.437927,351.613342 402.953461,353.498688 402.107910,355.766357 
	C399.413605,362.992188 396.206970,370.350189 395.419037,377.889252 
	C394.179169,389.752533 395.452606,401.593811 405.579773,411.038177 
z"/>
<path fill="#323133" opacity="1.000000" stroke="none" 
	d="
M475.199890,353.974518 
	C480.440491,365.881958 477.880066,376.781158 471.767426,387.001678 
	C468.633087,392.242401 462.868530,393.707153 457.064667,394.121063 
	C453.594666,394.368530 450.092621,394.166443 446.043671,394.166443 
	C445.270203,403.289673 446.811584,412.649292 443.337524,421.678040 
	C439.112000,420.223328 438.753967,417.323303 438.808502,414.282593 
	C439.189758,393.030670 439.545074,371.777649 440.130463,350.531128 
	C440.173340,348.975067 441.887970,346.200287 442.944061,346.141968 
	C449.831512,345.761566 456.919281,345.078156 463.599548,346.325439 
	C467.712158,347.093353 471.218842,351.106354 475.199890,353.974518 
M467.374207,355.067719 
	C461.776947,351.383972 455.636414,350.635956 449.256165,352.103210 
	C448.019592,352.387573 446.175446,353.970520 446.153412,354.987915 
	C445.925018,365.524017 446.012939,376.066956 446.012939,387.120697 
	C449.210205,387.120697 451.842560,387.142822 454.474457,387.116333 
	C460.909576,387.051575 466.742157,385.226837 468.895416,378.643097 
	C471.391693,371.010681 474.333374,362.988770 467.374207,355.067719 
z"/>
<path fill="#313032" opacity="1.000000" stroke="none" 
	d="
M504.882019,390.162109 
	C489.916656,381.725128 487.248474,368.203583 488.718414,353.104889 
	C488.955994,350.664581 487.130707,345.845490 491.895752,346.130219 
	C496.884125,346.428314 494.124451,351.082153 494.492126,353.759216 
	C494.935883,356.990204 494.367401,360.345795 494.566986,363.627411 
	C495.300934,375.697693 502.134186,382.636414 514.678650,386.064575 
	C516.100464,379.588531 517.833801,373.260895 518.810242,366.818573 
	C519.851624,359.947845 520.057312,352.953369 520.937500,346.052399 
	C521.079834,344.936218 522.832031,344.025360 523.840088,343.019562 
	C524.634399,344.019409 526.148926,345.043121 526.116699,346.015594 
	C525.460205,365.834229 524.286194,385.598785 513.864868,403.305603 
	C509.779266,410.247284 504.771271,416.497467 497.424103,420.272980 
	C495.128082,421.452881 492.459900,422.183411 489.887726,422.484467 
	C486.331329,422.900726 484.853638,420.829956 485.042358,417.346588 
	C498.973877,414.790771 504.774323,403.885651 511.499512,393.374146 
	C509.040863,392.181671 507.127045,391.253448 504.882019,390.162109 
z"/>
<path fill="#313032" opacity="1.000000" stroke="none" 
	d="
M375.193542,414.295532 
	C356.831024,422.722473 339.827484,413.852844 333.586029,392.940552 
	C327.683472,373.163696 336.886353,350.632751 354.184753,342.712067 
	C361.417603,339.400269 368.925812,338.530731 376.455017,341.501343 
	C377.560883,341.937653 378.432495,344.187286 378.456116,345.613770 
	C378.467316,346.290375 375.899780,347.883942 375.050903,347.570618 
	C360.084320,342.047302 342.950806,356.048798 339.429199,370.938293 
	C336.565308,383.047119 338.313843,394.184814 346.772705,403.588257 
	C354.447144,412.119629 364.830505,412.987366 374.185760,406.429596 
	C374.321564,406.334412 374.428802,406.196747 374.568176,406.108643 
	C377.114777,404.498840 380.259766,400.751678 382.631866,403.986511 
	C385.042206,407.273468 381.332977,410.157715 378.464905,412.233582 
	C377.523407,412.915070 376.507904,413.494263 375.193542,414.295532 
z"/>
<path fill="#2C2D31" opacity="1.000000" stroke="none" 
	d="
M568.597351,291.505981 
	C568.799866,280.817047 569.078125,270.585693 569.458069,260.358154 
	C569.470276,260.031494 570.526123,259.743591 572.301819,258.789276 
	C572.873840,267.125977 573.826416,274.782806 573.854858,282.443085 
	C574.026917,328.848969 573.986694,375.255646 574.027893,421.662079 
	C574.028931,422.823944 574.151306,423.985687 574.370361,425.596252 
	C572.910400,427.454346 571.297119,428.863647 569.326294,430.396606 
	C568.888977,426.206360 568.742798,421.892578 568.739624,417.578674 
	C568.708984,375.707184 568.702271,333.835693 568.597351,291.505981 
z"/>
<path fill="#C1A991" opacity="1.000000" stroke="none" 
	d="
M557.518799,256.490936 
	C557.528015,256.512177 557.509583,256.469696 557.518799,256.490936 
z"/>
<path fill="#2F2B31" opacity="1.000000" stroke="none" 
	d="
M853.136841,354.029480 
	C843.566284,354.126068 843.356812,353.909210 843.797485,344.472656 
	C844.603333,327.213287 845.452087,309.955872 846.211792,292.694489 
	C846.384460,288.771912 846.049866,284.815338 846.430298,280.921448 
	C846.529968,279.901459 848.455627,278.236328 849.507751,278.262604 
	C858.312622,278.482147 867.110046,279.015961 875.907593,279.493591 
	C876.723450,279.537872 877.717957,279.613403 878.293518,280.084778 
	C879.560181,281.122070 880.611877,282.421875 881.751343,283.614563 
	C880.201172,284.278412 878.650635,285.509186 877.100891,285.508148 
	C870.290405,285.503632 863.473999,285.251221 856.672363,284.865906 
	C853.310791,284.675476 851.982056,285.675354 851.928711,289.280182 
	C851.831421,295.855927 851.159058,302.423218 850.684631,309.632538 
	C856.505127,309.632538 861.615295,309.542938 866.719727,309.675385 
	C868.846497,309.730530 871.107056,309.905518 873.028198,310.699799 
	C874.245056,311.202881 874.947815,312.949188 875.881165,314.137878 
	C874.580933,314.820160 873.291260,316.063385 871.978760,316.087982 
	C866.164185,316.196869 860.343323,315.941559 854.524109,315.853546 
	C853.372620,315.836121 852.218689,315.975067 850.365601,316.082520 
	C850.064636,325.866425 849.668884,335.591888 849.633179,345.318695 
	C849.630005,346.180450 851.920593,347.698181 853.236816,347.806580 
	C859.359863,348.310822 865.520508,348.338959 871.655090,348.733643 
	C873.490417,348.851746 875.284851,349.605316 877.086792,350.889130 
	C869.808899,356.531067 861.190796,351.532410 853.136841,354.029480 
z"/>
<path fill="#302D32" opacity="1.000000" stroke="none" 
	d="
M737.939087,323.327026 
	C737.039368,322.308563 736.248169,321.279510 735.367676,321.196350 
	C733.745544,321.043121 732.065735,321.405823 730.419128,321.622925 
	C716.742126,323.426056 716.751770,323.432556 714.163757,337.112427 
	C713.347900,341.425262 712.469543,345.726288 711.551270,350.380035 
	C707.239319,348.982025 706.607971,346.416473 707.140930,343.471802 
	C710.697510,323.822632 716.151306,304.706482 724.130859,286.396301 
	C725.128479,284.106964 728.298035,282.764160 730.461243,280.982788 
	C732.104675,282.981903 734.725586,284.758881 735.238281,287.014954 
	C739.691772,306.611298 743.820190,326.282654 747.876099,345.966522 
	C748.304993,348.047974 747.646973,350.353394 747.493164,352.554901 
	C746.796997,352.751404 746.100891,352.947906 745.404724,353.144409 
	C744.251770,350.876404 742.557312,348.723450 742.046570,346.319031 
	C740.458923,338.844940 739.320251,331.275513 737.939087,323.327026 
M721.240601,309.845581 
	C720.771118,311.988434 720.301636,314.131317 719.740967,316.690308 
	C725.638550,315.935791 730.699585,315.288330 736.517273,314.544037 
	C734.393250,305.567535 732.346497,296.917816 730.299805,288.268097 
	C729.822998,288.223755 729.346191,288.179382 728.869385,288.135040 
	C726.421082,295.119965 723.972717,302.104919 721.240601,309.845581 
z"/>
<path fill="#302D32" opacity="1.000000" stroke="none" 
	d="
M768.720581,299.297455 
	C773.360352,302.580078 778.024780,305.283966 782.007751,308.767090 
	C789.641846,315.443207 793.752441,323.737762 790.538879,334.075958 
	C787.560547,343.657532 781.692810,350.336029 771.041443,351.644470 
	C763.475403,352.573853 755.632019,347.286926 754.282837,339.864227 
	C754.035706,338.504639 755.037109,336.918091 755.462158,335.436279 
	C756.671631,336.026886 758.300476,336.300262 759.024902,337.257812 
	C765.418335,345.709290 770.708740,347.076935 777.909790,341.903351 
	C785.652893,336.340332 788.118286,325.576172 782.477112,318.597137 
	C779.210388,314.555725 774.416443,311.785095 770.569214,308.166779 
	C766.529541,304.367401 761.952881,300.752838 759.143677,296.126709 
	C755.425903,290.004211 758.703064,282.312347 765.217834,278.853546 
	C772.719666,274.870728 781.459534,276.583496 785.230713,282.775421 
	C787.426086,286.380035 787.342773,288.017487 784.387756,292.234589 
	C783.471436,290.907623 782.399780,289.871674 781.953125,288.613800 
	C780.523010,284.585815 777.602966,282.695129 773.563293,282.886108 
	C769.359009,283.084808 765.656433,284.839203 763.950989,288.927399 
	C762.235962,293.038391 765.165039,295.756195 767.658752,298.448212 
	C767.882080,298.689270 768.176208,298.864716 768.720581,299.297455 
z"/>
<path fill="#2F2B31" opacity="1.000000" stroke="none" 
	d="
M678.580261,339.339478 
	C677.012085,340.254242 675.368652,340.778351 673.349487,341.331726 
	C673.319092,321.447327 673.599426,301.531860 674.163086,281.624359 
	C674.198853,280.361359 676.307861,278.278748 677.671631,278.079712 
	C684.511536,277.081451 690.954407,278.324432 696.176514,283.287872 
	C702.708679,289.496552 706.568054,297.087830 706.805725,306.151337 
	C707.018738,314.272156 703.280762,320.403778 695.630981,323.279327 
	C690.258240,325.298920 684.499451,326.291351 678.009399,327.977234 
	C678.152405,331.143036 678.328735,335.045929 678.580261,339.339478 
M690.739990,286.567749 
	C688.760071,285.731140 686.834412,284.714996 684.788574,284.096527 
	C680.907288,282.923218 678.943115,283.932861 679.108032,288.580139 
	C679.296082,293.877075 678.591553,299.199707 678.455444,304.515839 
	C678.325439,309.592865 678.427429,314.675873 678.427429,321.191071 
	C684.501648,319.373993 689.715393,318.359283 694.446411,316.257935 
	C700.064575,313.762543 701.897583,309.095306 700.699219,303.008942 
	C699.438293,296.604950 696.623474,291.080109 690.739990,286.567749 
z"/>
<path fill="#2F2B31" opacity="1.000000" stroke="none" 
	d="
M809.294067,278.106506 
	C816.412476,278.169098 823.097290,277.951294 829.700745,278.583221 
	C832.007874,278.803986 836.089294,281.347046 835.963379,282.437317 
	C835.474670,286.670258 831.680176,284.669739 829.131470,284.638184 
	C826.330200,284.603455 823.534180,284.144073 819.498230,283.748352 
	C819.498230,291.115662 819.497620,298.043121 819.498291,304.970612 
	C819.499390,317.134399 819.529480,329.298340 819.480896,341.461914 
	C819.470276,344.118439 819.319702,346.794098 818.939087,349.418243 
	C818.813599,350.283905 817.590210,351.759583 817.165710,351.662170 
	C816.079529,351.412903 814.559265,350.612335 814.296326,349.714783 
	C813.700684,347.681519 813.545166,345.453339 813.582703,343.310944 
	C813.906433,324.842560 814.320007,306.375732 814.677856,287.907898 
	C814.699768,286.778351 814.476318,285.644012 814.300903,283.827515 
	C810.655396,284.187164 807.125671,284.084106 803.867798,284.974976 
	C800.094299,286.006836 798.715454,284.578552 797.971863,280.152130 
	C801.607483,279.485107 805.218018,278.822662 809.294067,278.106506 
z"/>
<path fill="#323036" opacity="1.000000" stroke="none" 
	d="
M677.826782,422.115021 
	C678.718567,420.707733 680.097656,419.627838 680.249756,418.396423 
	C683.230713,394.262512 686.122314,370.117004 688.850098,345.953308 
	C689.110779,343.644653 688.167603,341.200104 687.598389,338.503540 
	C693.293457,340.990906 694.800232,343.143402 694.098389,349.976013 
	C692.417664,366.339417 690.451172,382.673706 688.563843,399.015564 
	C687.725098,406.278198 686.971924,413.558807 685.801697,420.769867 
	C685.474304,422.787628 683.801086,424.586945 682.745178,426.486481 
	C681.077698,425.114929 679.410217,423.743408 677.826782,422.115021 
z"/>
<path fill="#3A2D31" opacity="1.000000" stroke="none" 
	d="
M897.031372,152.036774 
	C894.290222,151.269608 892.542664,149.772415 892.742065,146.550247 
	C893.232910,138.622726 893.536072,130.682785 894.114807,122.762451 
	C894.192566,121.698029 895.424744,120.717964 896.585022,119.022987 
	C896.585022,130.650208 896.585022,140.975235 896.823853,151.682037 
	C897.062622,152.063812 897.006592,152.002594 897.031372,152.036774 
z"/>
<path fill="#3B342E" opacity="1.000000" stroke="none" 
	d="
M248.364883,267.883942 
	C248.009399,266.957642 248.064606,265.867096 248.040558,264.368774 
	C255.399872,265.419495 262.838470,266.878021 270.663239,268.143799 
	C270.798340,272.046173 267.916290,271.408752 265.366913,270.954224 
	C259.820526,269.965363 254.304184,268.808136 248.364883,267.883942 
z"/>
<path fill="#3B342E" opacity="1.000000" stroke="none" 
	d="
M285.018799,216.434387 
	C285.503632,216.867737 285.697906,217.095169 286.070190,217.465088 
	C286.786591,218.465561 287.342529,219.308578 288.095154,220.378677 
	C288.807648,221.470795 289.323395,222.335815 290.045898,223.427643 
	C291.134186,225.131073 292.015778,226.607712 293.104889,228.326477 
	C293.683868,229.108643 294.055359,229.648682 294.742004,230.072754 
	C293.671021,231.197067 298.277374,235.997131 292.046936,234.384995 
	C291.349396,233.758957 290.943634,233.280975 290.242798,232.924255 
	C289.348938,231.334488 288.750183,229.623474 287.936523,227.648499 
	C286.026031,224.835724 284.330444,222.286896 282.294128,219.891235 
	C283.266754,219.063400 280.135254,214.858109 285.018799,216.434387 
z"/>
<path fill="#F7D7AA" opacity="1.000000" stroke="none" 
	d="
M405.267059,410.851562 
	C395.452606,401.593811 394.179169,389.752533 395.419037,377.889252 
	C396.206970,370.350189 399.413605,362.992188 402.107910,355.766357 
	C402.953461,353.498688 405.437927,351.613342 407.561279,350.098236 
	C412.044678,346.899170 416.501312,347.762909 419.598083,352.314758 
	C420.885162,354.206665 422.015015,356.377594 422.547272,358.583099 
	C426.090881,373.266693 425.338837,387.678650 418.653809,401.387756 
	C417.097198,404.579926 414.577667,407.515381 411.879242,409.850098 
	C410.482422,411.058655 407.723389,410.692780 405.267059,410.851562 
z"/>
<path fill="#F7D7AA" opacity="1.000000" stroke="none" 
	d="
M467.678497,355.307007 
	C474.333374,362.988770 471.391693,371.010681 468.895416,378.643097 
	C466.742157,385.226837 460.909576,387.051575 454.474457,387.116333 
	C451.842560,387.142822 449.210205,387.120697 446.012939,387.120697 
	C446.012939,376.066956 445.925018,365.524017 446.153412,354.987915 
	C446.175446,353.970520 448.019592,352.387573 449.256165,352.103210 
	C455.636414,350.635956 461.776947,351.383972 467.678497,355.307007 
z"/>
<path fill="#DA93AB" opacity="1.000000" stroke="none" 
	d="
M721.382507,309.467712 
	C723.972717,302.104919 726.421082,295.119965 728.869385,288.135040 
	C729.346191,288.179382 729.822998,288.223755 730.299805,288.268097 
	C732.346497,296.917816 734.393250,305.567535 736.517273,314.544037 
	C730.699585,315.288330 725.638550,315.935791 719.740967,316.690308 
	C720.301636,314.131317 720.771118,311.988434 721.382507,309.467712 
z"/>
<path fill="#DA93AB" opacity="1.000000" stroke="none" 
	d="
M691.036377,286.794800 
	C696.623474,291.080109 699.438293,296.604950 700.699219,303.008942 
	C701.897583,309.095306 700.064575,313.762543 694.446411,316.257935 
	C689.715393,318.359283 684.501648,319.373993 678.427429,321.191071 
	C678.427429,314.675873 678.325439,309.592865 678.455444,304.515839 
	C678.591553,299.199707 679.296082,293.877075 679.108032,288.580139 
	C678.943115,283.932861 680.907288,282.923218 684.788574,284.096527 
	C686.834412,284.714996 688.760071,285.731140 691.036377,286.794800 
z"/>
</svg>